/* XPM */
static char * wmstickynotes_xpm[] = {
"56 56 138 2",
"  	c None",
". 	c #000000",
"+ 	c #BCD300",
"@ 	c #C0D700",
"# 	c #C1D800",
"$ 	c #C3DA00",
"% 	c #C4DB00",
"& 	c #C5DD00",
"* 	c #C6DE00",
"= 	c #C9E000",
"- 	c #CBE300",
"; 	c #CFE700",
"> 	c #D3EB00",
", 	c #D5EE00",
"' 	c #D6EF00",
") 	c #D4ED00",
"! 	c #D0E800",
"~ 	c #CCE500",
"{ 	c #BFD600",
"] 	c #BDD300",
"^ 	c #BDD400",
"/ 	c #BED500",
"( 	c #C6DD00",
"_ 	c #C7DE00",
": 	c #C7DF00",
"< 	c #C9E100",
"[ 	c #CEE600",
"} 	c #D1E900",
"| 	c #CAE200",
"1 	c #C0D600",
"2 	c #CFE800",
"3 	c #D1EA00",
"4 	c #D2EB00",
"5 	c #D2EA00",
"6 	c #C4DC00",
"7 	c #C2D900",
"8 	c #D3EC00",
"9 	c #C8E000",
"0 	c #CCE400",
"a 	c #B5CA00",
"b 	c #B1C600",
"c 	c #BAD000",
"d 	c #AEC200",
"e 	c #B7CD00",
"f 	c #ADC200",
"g 	c #ACC100",
"h 	c #BCD200",
"i 	c #B3C800",
"j 	c #ABC000",
"k 	c #D0E900",
"l 	c #A1B400",
"m 	c #B8CE00",
"n 	c #B0C400",
"o 	c #859500",
"p 	c #B7CC00",
"q 	c #AFC400",
"r 	c #717F00",
"s 	c #566100",
"t 	c #ACC000",
"u 	c #596300",
"v 	c #B9CE00",
"w 	c #B0C500",
"x 	c #A8BC00",
"y 	c #525C00",
"z 	c #CDE500",
"A 	c #A7BB00",
"B 	c #BBD100",
"C 	c #B3C900",
"D 	c #A9BD00",
"E 	c #9EB100",
"F 	c #576100",
"G 	c #B2C800",
"H 	c #5E6A00",
"I 	c #BFD500",
"J 	c #AABE00",
"K 	c #A3B700",
"L 	c #BBD200",
"M 	c #B5CB00",
"N 	c #616D00",
"O 	c #4F5900",
"P 	c #C5DC00",
"Q 	c #B9CF00",
"R 	c #A5B900",
"S 	c #606E00",
"T 	c #4B5400",
"U 	c #B6CC00",
"V 	c #AEC300",
"W 	c #6F7D00",
"X 	c #A5B800",
"Y 	c #636E00",
"Z 	c #475100",
"` 	c #728000",
" .	c #CDE600",
"..	c #C8DF00",
"+.	c #BAD100",
"@.	c #A6BA00",
"#.	c #535E00",
"$.	c #545E00",
"%.	c #6E7D00",
"&.	c #A4B800",
"*.	c #92A400",
"=.	c #4C5500",
"-.	c #6B7900",
";.	c #D4EC00",
">.	c #A1B500",
",.	c #4A5300",
"'.	c #576200",
").	c #7B8900",
"!.	c #829200",
"~.	c #B1C700",
"{.	c #A3B600",
"].	c #A2B500",
"^.	c #6C7900",
"/.	c #495200",
"(.	c #657200",
"_.	c #707E00",
":.	c #839300",
"<.	c #485000",
"[.	c #505A00",
"}.	c #788600",
"|.	c #8B9C00",
"1.	c #C3D900",
"2.	c #C2D800",
"3.	c #BBD000",
"4.	c #A8BD00",
"5.	c #97A900",
"6.	c #596400",
"7.	c #465000",
"8.	c #454E00",
"9.	c #4F5800",
"0.	c #6B7700",
"a.	c #6B7800",
"b.	c #7F8E00",
"c.	c #464E00",
"d.	c #434B00",
"e.	c #475000",
"f.	c #485100",
"g.	c #98AA00",
". . . . . . . . . . . . . . . . . . . . . . . . . . . . . . . . . . . . . . . . . . . . . . . . . . . . . . . . ",
". + @ # $ % & * = - ; > , ' ' ' ' ' ' ' ' ' ' ' ' ' ' ' ' ' ' ' ' ' ' ' ' ' ' ' ' ' ' ' ' , ) ! ~ % { ] ^ ^ / . ",
". { % ( _ : < - [ } ) ' ' ' ' ' ' ' ' ' ' ' ' ' ' ' ' ' ' ' ' ' ' ' ' ' ' ' ' ' ' ' ' ' ' ' ' , , } | % # 1 1 . ",
". ( ~ [ ! 2 3 4 ) ' ' ' ' ' ' ' ' ' ' ' ' ' ' ' ' ' ' ' ' ' ' ' ' ' ' ' ' ' ' ' ' ' ' ' ' ' ' ' ' ' 5 | 6 7 # . ",
". 5 , ) , , , ' ' ' ' ' ' ' ' ' ' ' ' ' ' ' ' ' ' ' ' ' ' ' ' ' ' ' ' ' ' ' ' ' ' ' ' ' ' ' ' ' ' ' , 2 = % 7 . ",
". , ' ' ' ' ' ' ' ' ' ' ' ' ' ' ' ' ' ' ' ' ' ' ' ' ' ' ' ' ' ' ' ' ' ' ' ' ' ' ' ' ' ' ' ' ' ' ' ' ' 8 ~ _ % . ",
". , ' ' ' ' ' ' ' ' ' ' ' ' ' ' ' ' ' ' ' ' ' ' ' ' ' ' ' ' ' ' ' ' ' ' ' ' ' ' ' ' ' ' ' ' ' ' ' ' ' , } - _ . ",
". ' ' ' ' ' ' ' ' ' ' ' ' ' ' ' ' ' ' ' ' ' ' ' ' ' ' ' ' ' ' ' ' ' ' ' ' ' ' ' ' ' ' ' ' ' ' ' ' ' ' ' 8 [ 9 . ",
". ' ' ' ' ' ' ' ' ' ' ' ' ' ' ' ' ' ' ' ' ' ' ' ' ' ' ' ' ' ' ' ' ' ' ' ' ' ' ' ' ' ' ' ' ' ' ' ' ' ' ' , 5 0 . ",
". ' ' ' ' ' ' ' ' ' ' ' ' ' ' ' ' ' ' ' ' ' ' ' ' ' ' ' ' ' ' ' ' ' ' ' ' ' ' ' ' ' ' ' ' ' ' ' ' ' ' ' ' ) ; . ",
". ' ' ' ' ' ' ' ' ' ' ' ' ' ' ' ' ' ' ' ' ' ' ' ' ' ' ' ' ' ' ' ' ' ' ' ' ' ' ' ' ' ' ' ' ' ' ' ' ' ' ' ' , 4 . ",
". ' ' ' ' ' ' ' ' ' ' ' ' ' ' ' ' ' ' ' ' ' ' ' ' ' ' ' ' ' ' ' ' ' ' ' ' ' ' ' ' ' ' ' ' ' ' ' ' ' ' ' ' ' ) . ",
". ' ' ' ' ' ' ' ' ' ' ' ' ' ' ' ' ' ' ' ' ' ' ' ' ' ' ' ' ' ' ' ' ' ' ' ' ' ' ' ' ' ' ' ' ' ' ' ' ' ' ' ' ' , . ",
". ' ' ' ' ' ' ' ' ' ' ' ' ' ' ' ' ' ' ' ' ' ' ' ' ' ' ' ' ' ' ' ' ' ' ' ' ' ' ' ' ' ' ' ' ' ' ' ' ' ' ' ' ' , . ",
". ' ' ' ' ' ' ' ' ' ' ' ' ' ' ' ' ' ' ' ' ' ' ' ' ' ' ' ' ' ' ' ' ' ' ' ' ' ' ' ' ' ' ' ' ' ' ' ' ' ' ' ' ' , . ",
". ' ' ' ' ' ' ' ' ' ' ' ' ' ' ' ' ' ' ' ' ' ' ' ' ' ' ' ' ' ' ' ' ' ' ' ' ' ' ' ' ' ' ' ' ' ' ' ' ' ' ' ' ' ' . ",
". ' ' ' ' ' ' ' ' ' ' ' ' ' ' ' ' ' ' ' ' ' ' ' ' ' ' ' ' ' ' ' ' ' ' ' ' ' ' ' ' ' ' ' ' ' ' ' ' ' ' ' ' ' ' . ",
". ' ' ' ' ' ' ' ' ' ' ' ' ' ' ' ' ' ' ' ' ' ' ' ' ' ' ' ' ' ' ' ' ' ' ' ' ' ' ' ' ' ' ' ' ' ' ' ' ' ' ' ' ' ) . ",
". ' ' ' ' ' ' ' ' ' ' ' ' ' ' ' ' ' ' ' ' ' ' ' ' ' ' ' ' ' ' ' ' ' ' ' ' ' ' ' ' ' ' ' ' ' ' ' ' ' ' ' ' ' ! . ",
". ' ' ' ' ' ' ' ' ' ' ' ' ' ' ' ' ' ' ' ' ' ' ' ' ' ' ' ' ' ' ' ' ' ' ' ' ' ' ' ' ' ' ' ' ' ' ' ' ' ' ' ' ) - . ",
". ' ' ' ' ' ' ' ' ' ' ' ' ' ' ' ' ' ' ' ' ' ' ' ' ' ' ' ' ' ' ' ' ' ' ' ' ' ' ' ' ' ' ' ' ' ' ' ' ' ' ' ' 4 7 . ",
". ' ' ' ' ' ' ' ' ' ' ' ' ' ' ' ' ' ' ' ' ' ' ' ' ' ' ' ' ' ' ' ' ' ' ' ' ' ' ' ' ' ' ' ' ' ' ' ' ' ' ' , ; ^ . ",
". ' ' ' ' ' ' ' ' ' ' ' ' ' ' ' ' ' ' ' ' ' ' ' ' ' ' ' ' ' ' ' ' ' ' ' ' ' ' ' ' ' ' ' ' ' ' ' ' ' ' ' 4 * a . ",
". ' ' ' ' ' ' ' ' ' ' ' ' ' ' ' ' ' ' ' ' ' ' ' ' ' ' ' ' ' ' ' ' ' ' ' ' ' ' ' ' ' ' ' ' ' ' ' ' ' ' , ; @ b . ",
". ' ' ' ' ' ' ' ' ' ' ' ' ' ' ' ' ' ' ' ' ' ' ' ' ' ' ' ' ' ' ' ' ' ' ' ' ' ' ' ' ' ' ' ' ' ' ' ' ' ' 8 9 c d . ",
". ' ' ' ' ' ' ' ' ' ' ' ' ' ' ' ' ' ' ' ' ' ' ' ' ' ' ' ' ' ' ' ' ' ' ' ' ' ' ' ' ' ' ' ' ' ' ' ' ' ' } $ e f . ",
". ' ' ' ' ' ' ' ' ' ' ' ' ' ' ' ' ' ' ' ' ' ' ' ' ' ' ' ' ' ' ' ' ' ' ' ' ' ' ' ' ' ' ' ' ' ' ' ' ' ) - / a g . ",
". ' ' ' ' ' ' ' ' ' ' ' ' ' ' ' ' ' ' ' ' ' ' ' ' ' ' ' ' ' ' ' ' ' ' ' ' ' ' ' ' ' ' ' ' ' ' ' ' ' 8 = h i j . ",
". ' ' ' ' ' ' ' ' ' ' ' ' ' ' ' ' ' ' ' ' ' ' ' ' ' ' ' ' ' ' ' ' ' ' ' ' ' ' ' ' ' ' ' ' ' ' ' ' , k 6 c b l . ",
". ' ' ' ' ' ' ' ' ' ' ' ' ' ' ' ' ' ' ' ' ' ' ' ' ' ' ' ' ' ' ' ' ' ' ' ' ' ' ' ' ' ' ' ' ' ' ' ' , [ 7 m n o . ",
". ' ' ' ' ' ' ' ' ' ' ' ' ' ' ' ' ' ' ' ' ' ' ' ' ' ' ' ' ' ' ' ' ' ' ' ' ' ' ' ' ' ' ' ' ' ' ' ' ) - 1 p q r . ",
". ' ' ' ' ' ' ' ' ' ' ' ' ' ' ' ' ' ' ' ' ' ' ' ' ' ' ' ' ' ' ' ' ' ' ' ' ' ' ' ' ' ' ' ' ' ' ' ' > 9 ] a f s . ",
". ' ' ' ' ' ' ' ' ' ' ' ' ' ' ' ' ' ' ' ' ' ' ' ' ' ' ' ' ' ' ' ' ' ' ' ' ' ' ' ' ' ' ' ' ' ' ' , } _ h i t u . ",
". ' ' ' ' ' ' ' ' ' ' ' ' ' ' ' ' ' ' ' ' ' ' ' ' ' ' ' ' ' ' ' ' ' ' ' ' ' ' ' ' ' ' ' ' ' ' ' ) [ $ v w x y . ",
". ' ' ' ' ' ' ' ' ' ' ' ' ' ' ' ' ' ' ' ' ' ' ' ' ' ' ' ' ' ' ' ' ' ' ' ' ' ' ' ' ' ' ' ' ' ' , 4 z @ p i A y . ",
". ' ' ' ' ' ' ' ' ' ' ' ' ' ' ' ' ' ' ' ' ' ' ' ' ' ' ' ' ' ' ' ' ' ' ' ' ' ' ' ' ' ' ' ' ' ' ) ; _ B C D E F . ",
". ' ' ' ' ' ' ' ' ' ' ' ' ' ' ' ' ' ' ' ' ' ' ' ' ' ' ' ' ' ' ' ' ' ' ' ' ' ' ' ' ' ' ' ' ' , 3 - $ c G j E H . ",
". ' ' ' ' ' ' ' ' ' ' ' ' ' ' ' ' ' ' ' ' ' ' ' ' ' ' ' ' ' ' ' ' ' ' ' ' ' ' ' ' ' ' ' ' , 4 0 ( I e b J K y . ",
". ' ' ' ' ' ' ' ' ' ' ' ' ' ' ' ' ' ' ' ' ' ' ' ' ' ' ' ' ' ' ' ' ' ' ' ' ' ' ' ' ' ' ' , 8 z = 7 L M q A N O . ",
". ' ' ' ' ' ' ' ' ' ' ' ' ' ' ' ' ' ' ' ' ' ' ' ' ' ' ' ' ' ' ' ' ' ' ' ' ' ' ' ' ' ' , 4 [ < P { Q i g R S T . ",
". ' ' ' ' ' ' ' ' ' ' ' ' ' ' ' ' ' ' ' ' ' ' ' ' ' ' ' ' ' ' ' ' ' ' ' ' ' ' ' ' ' ) 3 [ | ( # h U V x K y W . ",
". ' ' ' ' ' ' ' ' ' ' ' ' ' ' ' ' ' ' ' ' ' ' ' ' ' ' ' ' ' ' ' ' ' ' ' ' ' ' ' , ) k [ - * 7 ^ c C D X Y Z ` . ",
". , ' ' ' ' ' ' ' ' ' ' ' ' ' ' ' ' ' ' ' ' ' ' ' ' ' ' ' ' ' ' ' ' ' ' ' ' ' , 8 k  .0 ..$ I +.p V @.K #.$.%.. ",
". 8 ' ' ' ' ' ' ' ' ' ' ' ' ' ' ' ' ' ' ' ' ' ' ' ' ' ' ' ' ' ' ' ' ' ' ' ' , 5 ; 0 - : $ { B U q D &.*.=.W -.. ",
". 0 ;.' ' ' ' ' ' ' ' ' ' ' ' ' ' ' ' ' ' ' ' ' ' ' ' ' ' ' ' ' ' ' ' ' ' ) }  .0 | ( 7 + U G d A &.>.,.'.).!.. ",
". ( z > ' ' ' ' ' ' ' ' ' ' ' ' ' ' ' ' ' ' ' ' ' ' ' ' ' ' ' ' ' ' ' , ;.!  .0 < 6 + U ~.f J A {.].^./.(._.:.. ",
". 7 ( 0 4 ) ' ' ' ' ' ' ' ' ' ' ' ' ' ' ' ' ' ' ' ' ' ' ' ' ' ' ' ' , 4 ; 0 | : 1 v C n j x X K ].r <.[.}._.|.. ",
". i M p Q ] / 7 { 1.{ $ # 7 2.# 7 # $ { 1.{ $ # 7 2.# 7 # $ { 1.{ 7 / + 3.Q e M b 4.@.&.&.K 5.6.7.8.9.0.a.b.E . ",
". c.,.,.,.,.,.,.,.,.,.,.,.,.,.,.,.,.,.,.,.,.,.,.,.,.,.,.,.,.,.,.,.,.,.,.,.,.,.,.,.,.,.,.,.,./.d.e.f.,.,.,.,.,.. ",
". g.g.g.g.g.g.g.g.g.g.g.g.g.g.g.g.g.g.g.g.g.g.g.g.g.g.g.g.g.g.g.g.g.g.g.g.g.g.g.g.g.g.g.g.g.g.g.g.g.g.g.g.g.g.. ",
". ,.,.,.,.,.,.,.,.,.,.,.,.,.,.,.,.,.,.,.,.,.,.,.,.,.,.,.,.,.,.,.,.,.,.,.,.,.,.,.,.,.,.,.,.,.,.,.,.,.,.,.,.,.c.. ",
". g.g.g.g.g.g.g.g.g.g.g.g.g.g.g.g.g.g.g.g.g.g.g.g.g.g.g.g.g.g.g.g.g.g.g.g.g.g.g.g.g.g.g.g.g.g.g.g.g.g.g.g.g.g.. ",
". c.,.,.,.,.,.,.,.,.,.,.,.,.,.,.,.,.,.,.,.,.,.,.,.,.,.,.,.,.,.,.,.,.,.,.,.,.,.,.,.,.,.,.,.,.,.,.,.,.,.,.,.,.,.. ",
". g.g.g.g.g.g.g.g.g.g.g.g.g.g.g.g.g.g.g.g.g.g.g.g.g.g.g.g.g.g.g.g.g.g.g.g.g.g.g.g.g.g.g.g.g.g.g.g.g.g.g.g.g.g.. ",
". ,.,.,.,.,.,.,.,.,.,.,.,.,.,.,.,.,.,.,.,.,.,.,.,.,.,.,.,.,.,.,.,.,.,.,.,.,.,.,.,.,.,.,.,.,.,.,.,.,.,.,.,.,.c.. ",
". . . . . . . . . . . . . . . . . . . . . . . . . . . . . . . . . . . . . . . . . . . . . . . . . . . . . . . . "};
