/* XPM */
static char * wmstickynotes_xpm[] = {
"56 56 76 1",
" 	c None",
".	c #000000",
"+	c #BCD300",
"@	c #C0D700",
"#	c #C1D800",
"$	c #C3DA00",
"%	c #C4DB00",
"&	c #C5DD00",
"*	c #C6DE00",
"=	c #C9E000",
"-	c #CBE300",
";	c #CFE700",
">	c #D3EB00",
",	c #D5EE00",
"'	c #D6EF00",
")	c #D4ED00",
"!	c #D0E800",
"~	c #CCE500",
"{	c #BFD600",
"]	c #BDD300",
"^	c #BDD400",
"/	c #BED500",
"(	c #C6DD00",
"_	c #C7DE00",
":	c #C7DF00",
"<	c #C9E100",
"[	c #CEE600",
"}	c #D1E900",
"|	c #CAE200",
"1	c #C0D600",
"2	c #CFE800",
"3	c #D1EA00",
"4	c #D2EB00",
"5	c #D2EA00",
"6	c #C4DC00",
"7	c #C2D900",
"8	c #D3EC00",
"9	c #C8E000",
"0	c #CCE400",
"a	c #D0E900",
"b	c #D4EC00",
"c	c #D5ED00",
"d	c #C5DC00",
"e	c #CDE500",
"f	c #C3D900",
"g	c #CAE100",
"h	c #BFD500",
"i	c #BBD100",
"j	c #B6CB00",
"k	c #B1C500",
"l	c #B4C900",
"m	c #ACC000",
"n	c #BAD000",
"o	c #AFC400",
"p	c #A8BC00",
"q	c #C2D800",
"r	c #A4B700",
"s	c #B9CE00",
"t	c #AFC300",
"u	c #A7BB00",
"v	c #A2B500",
"w	c #BED400",
"x	c #ABBF00",
"y	c #9FB200",
"z	c #B3C800",
"A	c #B5CB00",
"B	c #B7CC00",
"C	c #B9CF00",
"D	c #B7CD00",
"E	c #A6B900",
"F	c #9DB000",
"G	c #9BAC00",
"H	c #96A700",
"I	c #464E00",
"J	c #4A5300",
"K	c #98AA00",
"........................................................",
".+@#$%&*=-;>,'''''''''''''''''''''''''''''''',)!~%{]^^/.",
".{%(_:<-[})'''''''''''''''''''''''''''''''''''',,}|%#11.",
".(~[!234)'''''''''''''''''''''''''''''''''''''''''5|67#.",
".5,),,,''''''''''''''''''''''''''''''''''''''''''',2=%7.",
".,'''''''''''''''''''''''''''''''''''''''''''''''''8~_%.",
".,''''''''''''''''''''''''''''''''''''''''''''''''',}-_.",
".'''''''''''''''''''''''''''''''''''''''''''''''''''8[9.",
".''''''''''''''''''''''''''''''''''''''''''''''''''',50.",
".'''''''''''''''''''''''''''''''''''''''''''''''''''');.",
".'''''''''''''''''''''''''''''''''''''''''''''''''''',4.",
".''''''''''''''''''''''''''''''''''''''''''''''''''''').",
".''''''''''''''''''''''''''''''''''''''''''''''''''''',.",
".''''''''''''''''''''''''''''''''''''''''''''''''''''',.",
".''''''''''''''''''''''''''''''''''''''''''''''''''''',.",
".''''''''''''''''''''''''''''''''''''''''''''''''''''''.",
".''''''''''''''''''''''''''''''''''''''''''''''''''''''.",
".''''''''''''''''''''''''''''''''''''''''''''''''''''').",
".'''''''''''''''''''''''''''''''''''''''''''''''''''''a.",
".'''''''''''''''''''''''''''''''''''''''''''''''''''''b.",
".''''''''''''''''''''''''''''''''''''''''''''''''''''''.",
".''''''''''''''''''''''''''''''''''''''''''''''''''''''.",
".''''''''''''''''''''''''''''''''''''''''''''''''''''''.",
".''''''''''''''''''''''''''''''''''''''''''''''''''''''.",
".''''''''''''''''''''''''''''''''''''''''''''''''''''''.",
".''''''''''''''''''''''''''''''''''''''''''''''''''''''.",
".''''''''''''''''''''''''''''''''''''''''''''''''''''''.",
".''''''''''''''''''''''''''''''''''''''''''''''''''''''.",
".''''''''''''''''''''''''''''''''''''''''''''''''''''''.",
".''''''''''''''''''''''''''''''''''''''''''''''''''''',.",
".''''''''''''''''''''''''''''''''''''''''''''''''''''',.",
".''''''''''''''''''''''''''''''''''''''''''''''''''''').",
".'''''''''''''''''''''''''''''''''''''''''''''''''''''4.",
".'''''''''''''''''''''''''''''''''''''''''''''''''''',;.",
".''''''''''''''''''''''''''''''''''''''''''''''''''''c0.",
".''''''''''''''''''''''''''''''''''''''''''''''''''',>=.",
".''''''''''''''''''''''''''''''''''''''''''''''''''',ad.",
".''''''''''''''''''''''''''''''''''''''''''''''''''')ef.",
".'''''''''''''''''''''''''''''''''''''''''''''''''''8gh.",
".'''''''''''''''''''''''''''''''''''''''''''''''''''}_i.",
".'''''''''''''''''''''''''''''''''''''''''''''''''',[#j.",
".'''''''''''''''''''''''''''''''''''''''''''''''''',-ik.",
".,'''''''''''''''''''''''''''''''''''''''''''''''''>flm.",
".8'''''''''''''''''''''''''''''''''''''''''''''''',[nop.",
".0b'''''''''''''''''''''''''''''''''''''''''''''',3qlmr.",
".(e>'''''''''''''''''''''''''''''''''''''''''''',59stuv.",
".7(04)''''''''''''''''''''''''''''''''''''''''',59wlxry.",
".zABC]/7{f{$#7q#7#${f{$#7q#7#${f{$#7q#7#${f{$##hDzmEFGH.",
".IJJJJJJJJJJJJJJJJJJJJJJJJJJJJJJJJJJJJJJJJJJJJJJJJJJJJJ.",
".KKKKKKKKKKKKKKKKKKKKKKKKKKKKKKKKKKKKKKKKKKKKKKKKKKKKKK.",
".JJJJJJJJJJJJJJJJJJJJJJJJJJJJJJJJJJJJJJJJJJJJJJJJJJJJJI.",
".KKKKKKKKKKKKKKKKKKKKKKKKKKKKKKKKKKKKKKKKKKKKKKKKKKKKKK.",
".IJJJJJJJJJJJJJJJJJJJJJJJJJJJJJJJJJJJJJJJJJJJJJJJJJJJJJ.",
".KKKKKKKKKKKKKKKKKKKKKKKKKKKKKKKKKKKKKKKKKKKKKKKKKKKKKK.",
".JJJJJJJJJJJJJJJJJJJJJJJJJJJJJJJJJJJJJJJJJJJJJJJJJJJJJI.",
"........................................................"};
